<svg width="23" height="31" viewBox="0 0 23 31" fill="none" xmlns="http://www.w3.org/2000/svg">
<path d="M5.6275 0H8.85V1.3475H6.975V2.695H8.85V4.0425H5.6275V0ZM9.49375 0H12.7175V1.1725H10.8425V1.40625H12.7175V4.10125H9.49375V2.87125H11.3688V2.63625H9.49375V0ZM13.3625 0H16.5838V1.1725H14.7088V1.40625H16.5838V4.10125H13.3625V2.87125H15.2375V2.63625H13.3625V0Z" fill="#CDC5F2"/>
<path fill-rule="evenodd" clip-rule="evenodd" d="M11.2388 30.2049L2.55875 27.7949L0 6.1012H22.5L19.9425 27.7924L11.2388 30.2049ZM5.05875 15.9212L5.2975 18.5812H14.5187L14.21 22.0312L11.2425 22.8337H11.24L8.2775 22.0337L8.0875 19.9124H5.41625L5.78875 24.0899L11.2388 25.6024L16.6975 24.0899L17.3625 16.6349L17.4275 15.9212L17.9075 10.5349H4.58L4.8225 13.1962H14.9925L14.75 15.9212H5.05875Z" fill="#CDC5F2"/>
</svg>
