<svg width="29" height="23" viewBox="0 0 29 23" fill="none" xmlns="http://www.w3.org/2000/svg">
<path d="M26.1 0H2.9C1.305 0 0.0145 1.29375 0.0145 2.875L0 20.125C0 21.7062 1.305 23 2.9 23H26.1C27.695 23 29 21.7062 29 20.125V2.875C29 1.29375 27.695 0 26.1 0ZM25.52 6.10938L15.2685 12.4631C14.8045 12.7506 14.1955 12.7506 13.7315 12.4631L3.48 6.10938C3.3346 6.02846 3.20728 5.91914 3.10574 5.78803C3.00419 5.65692 2.93054 5.50674 2.88923 5.3466C2.84793 5.18645 2.83983 5.01966 2.86543 4.85632C2.89102 4.69298 2.94979 4.53648 3.03816 4.39631C3.12653 4.25613 3.24267 4.13519 3.37955 4.04081C3.51644 3.94642 3.67121 3.88055 3.83452 3.84718C3.99782 3.81381 4.16626 3.81364 4.32963 3.84668C4.49301 3.87971 4.64792 3.94527 4.785 4.03937L14.5 10.0625L24.215 4.03937C24.3521 3.94527 24.507 3.87971 24.6704 3.84668C24.8337 3.81364 25.0022 3.81381 25.1655 3.84718C25.3288 3.88055 25.4836 3.94642 25.6204 4.04081C25.7573 4.13519 25.8735 4.25613 25.9618 4.39631C26.0502 4.53648 26.109 4.69298 26.1346 4.85632C26.1602 5.01966 26.1521 5.18645 26.1108 5.3466C26.0695 5.50674 25.9958 5.65692 25.8943 5.78803C25.7927 5.91914 25.6654 6.02846 25.52 6.10938Z" fill="#CDC5F2"/>
</svg>
