<svg width="19" height="28" viewBox="0 0 19 28" fill="none" xmlns="http://www.w3.org/2000/svg">
<path d="M4.66231 0H9.30592V9.07429H4.66237C-1.46146 8.8404 -1.52331 0.245656 4.66231 0ZM4.66231 18.5367H9.30592V9.46241H4.66237C-1.52325 9.70807 -1.46146 18.3028 4.66231 18.5367ZM14.3469 0H9.70315V9.07429H14.3469C20.5531 8.74978 20.4757 0.185227 14.3469 0ZM9.30592 23.462V18.9248H4.66237C0.872996 18.9248 -1.52325 23.2657 1.11216 26.3835C3.62483 29.4739 9.30598 27.9332 9.30598 23.462M19 13.9996C19 10.5127 15.1101 8.32163 12.0151 10.0651C8.92 11.8085 8.91995 16.1907 12.0151 17.9341C15.1102 19.6775 19 17.4864 19 13.9996Z" fill="#CDC5F2"/>
</svg>
