<svg width="28" height="28" viewBox="0 0 28 28" fill="none" xmlns="http://www.w3.org/2000/svg">
<g clip-path="url(#clip0_7_23)">
<path d="M14 0C21.735 0 28 6.265 28 14C28 16.9335 27.0797 19.7932 25.3687 22.176C23.6577 24.5589 21.2422 26.3449 18.4625 27.2825C17.7625 27.4225 17.5 26.985 17.5 26.6175C17.5 26.145 17.5175 24.64 17.5175 22.7675C17.5175 21.455 17.08 20.615 16.5725 20.1775C19.6875 19.8275 22.96 18.6375 22.96 13.265C22.96 11.725 22.4175 10.4825 21.525 9.5025C21.665 9.1525 22.155 7.7175 21.385 5.7925C21.385 5.7925 20.2125 5.4075 17.535 7.2275C16.415 6.9125 15.225 6.755 14.035 6.755C12.845 6.755 11.655 6.9125 10.535 7.2275C7.8575 5.425 6.685 5.7925 6.685 5.7925C5.915 7.7175 6.405 9.1525 6.545 9.5025C5.6525 10.4825 5.11 11.7425 5.11 13.265C5.11 18.62 8.365 19.8275 11.48 20.1775C11.0775 20.5275 10.71 21.14 10.5875 22.05C9.7825 22.4175 7.77 23.0125 6.51 20.895C6.2475 20.475 5.46 19.4425 4.3575 19.46C3.185 19.4775 3.885 20.125 4.375 20.3875C4.97 20.72 5.6525 21.9625 5.81 22.365C6.09 23.1525 7 24.6575 10.5175 24.01C10.5175 25.1825 10.535 26.285 10.535 26.6175C10.535 26.985 10.2725 27.405 9.5725 27.2825C6.78412 26.3544 4.35879 24.5718 2.64056 22.1876C0.922332 19.8035 -0.00154084 16.9388 1.92905e-06 14C1.92905e-06 6.265 6.265 0 14 0Z" fill="#CDC5F2"/>
</g>
<defs>
<clipPath id="clip0_7_23">
<rect width="28" height="28" fill="white"/>
</clipPath>
</defs>
</svg>
