<svg width="26" height="30" viewBox="0 0 26 30" fill="none" xmlns="http://www.w3.org/2000/svg">
<path d="M3.00446 0H4.56734V1.33625H5.99734V0H7.56023V4.045H5.99734V2.69125H4.56734V4.045H3.0059L3.00446 0ZM9.61423 1.34125H8.23912V0H12.5537V1.34125H11.1771V4.045H9.61423V1.34125ZM13.2383 0H14.8677L15.8701 1.42125L16.8711 0H18.5005V4.045H16.9448V2.04L15.8701 3.47875H15.8427L14.7666 2.04125V4.045H13.2383V0ZM19.2776 0H20.8419V2.70875H23.0375V4.04625H19.2776V0Z" fill="#CDC5F2"/>
<path fill-rule="evenodd" clip-rule="evenodd" d="M2.95533 27.59L0 5.89624H26L23.0432 27.5875L12.9856 30L2.95533 27.59ZM8.931 15.715L8.65078 12.99H20.4158L20.6902 10.33H5.29244L6.12156 18.3762H16.7772L16.4204 21.8262L12.9913 22.6287H12.9884L9.56511 21.8287L9.34556 19.7075H6.25733L6.68778 23.885L12.9856 25.3975L19.2934 23.885L20.0619 16.43L20.137 15.7162L8.931 15.715Z" fill="#CDC5F2"/>
</svg>
