<svg width="28" height="28" viewBox="0 0 28 28" fill="none" xmlns="http://www.w3.org/2000/svg">
<g clip-path="url(#clip0_7_25)">
<path d="M23.8525 23.8621H19.7111V17.3635C19.7111 15.8139 19.6787 13.8224 17.5455 13.8224C15.386 13.8224 15.057 15.5032 15.057 17.2489V23.8612H10.9104V10.4991H14.8934V12.3217H14.9468C15.5033 11.2691 16.8569 10.1623 18.8764 10.1623C23.0772 10.1623 23.8569 12.9281 23.8569 16.5244V23.8612L23.8525 23.8621ZM6.22563 8.673C5.90912 8.67312 5.59569 8.61079 5.30331 8.48959C5.01093 8.36838 4.74533 8.19069 4.52172 7.96668C4.29812 7.74267 4.12091 7.47675 4.00024 7.18415C3.87957 6.89154 3.81781 6.57801 3.8185 6.2615C3.81902 5.78511 3.96078 5.31956 4.22587 4.92374C4.49095 4.52791 4.86745 4.21956 5.30776 4.0377C5.74807 3.85583 6.23242 3.8086 6.69957 3.90199C7.16672 3.99537 7.5957 4.22517 7.93225 4.56234C8.26881 4.89951 8.49783 5.3289 8.59037 5.79622C8.6829 6.26353 8.6348 6.7478 8.45213 7.18778C8.26946 7.62776 7.96044 8.0037 7.56413 8.26806C7.16782 8.53243 6.70202 8.67335 6.22563 8.673ZM8.30288 23.8621H4.1475V10.5H8.30288V23.8621ZM25.9315 0H2.065C0.924875 0 0 0.902125 0 2.01863V25.9823C0 27.0988 0.924875 28.0009 2.065 28.0009H25.9271C27.0655 28.0009 28 27.0988 28 25.9823V2.01863C28 0.902125 27.0655 0 25.9271 0H25.9315Z" fill="#CDC5F2"/>
</g>
<defs>
<clipPath id="clip0_7_25">
<rect width="28" height="28" fill="white"/>
</clipPath>
</defs>
</svg>
