<svg width="26" height="28" viewBox="0 0 26 28" fill="none" xmlns="http://www.w3.org/2000/svg">
<path fill-rule="evenodd" clip-rule="evenodd" d="M26 7.50028L13 0L0 7.50028V20.4997L2.012 21.6605L6.126 20.0153C6.67962 19.7936 7.15372 19.4136 7.48758 18.9239C7.82144 18.4343 7.99987 17.8572 8 17.2667V7.0791H10V17.2667C9.99986 18.2511 9.70245 19.2131 9.14588 20.0293C8.58931 20.8456 7.79893 21.4789 6.876 21.8483L4.196 22.9201L13 28L26 20.5017V7.50028ZM12 11.0339C12 9.98502 12.4214 8.9791 13.1716 8.23743C13.9217 7.49576 14.9391 7.0791 16 7.0791H18.334C20.358 7.0791 22 8.70057 22 10.7037V11.0339H20V10.7037C20 10.4874 19.9569 10.2732 19.8732 10.0733C19.7895 9.87348 19.6667 9.6919 19.512 9.53894C19.3573 9.38599 19.1737 9.26466 18.9715 9.18188C18.7694 9.0991 18.5528 9.0565 18.334 9.0565H16C15.4696 9.0565 14.9609 9.26483 14.5858 9.63566C14.2107 10.0065 14 10.5095 14 11.0339C14 11.5583 14.2107 12.0613 14.5858 12.4321C14.9609 12.803 15.4696 13.0113 16 13.0113H18C19.0609 13.0113 20.0783 13.428 20.8284 14.1696C21.5786 14.9113 22 15.9172 22 16.9661C22 18.015 21.5786 19.0209 20.8284 19.7626C20.0783 20.5042 19.0609 20.9209 18 20.9209H16C14.9391 20.9209 13.9217 20.5042 13.1716 19.7626C12.4214 19.0209 12 18.015 12 16.9661H14C14 17.4905 14.2107 17.9935 14.5858 18.3643C14.9609 18.7352 15.4696 18.9435 16 18.9435H18C18.5304 18.9435 19.0391 18.7352 19.4142 18.3643C19.7893 17.9935 20 17.4905 20 16.9661C20 16.4417 19.7893 15.9387 19.4142 15.5679C19.0391 15.197 18.5304 14.9887 18 14.9887H16C14.9391 14.9887 13.9217 14.572 13.1716 13.8304C12.4214 13.0887 12 12.0828 12 11.0339Z" fill="#CDC5F2"/>
</svg>
