<svg width="28" height="28" viewBox="0 0 28 28" fill="none" xmlns="http://www.w3.org/2000/svg">
<mask id="mask0_14_23" style="mask-type:luminance" maskUnits="userSpaceOnUse" x="0" y="0" width="28" height="28">
<path d="M0 0H28V28H0V0Z" fill="white"/>
</mask>
<g mask="url(#mask0_14_23)">
<path d="M13.8997 0C6.79 0 7.23333 3.09867 7.23333 3.09867L7.2415 6.30933H14.0245V7.273H4.55C4.55 7.273 0 6.75383 0 13.9638C0 21.1738 3.97017 20.9172 3.97017 20.9172H6.3385V17.5723C6.3385 17.5723 6.21133 13.5823 10.2468 13.5823H16.9738C16.9738 13.5823 20.7538 13.643 20.7538 9.90967V3.73567C20.7538 3.73567 21.3278 0 13.8997 0ZM10.1593 2.15833C10.8337 2.15833 11.3797 2.70667 11.3797 3.38567C11.3797 4.0635 10.8337 4.61183 10.1593 4.61183C9.485 4.61183 8.939 4.0635 8.939 3.38567C8.939 2.70667 9.48383 2.15833 10.1593 2.15833Z" fill="#CDC5F2"/>
<path d="M14.1015 28.0001C21.2088 28.0001 20.7655 24.9014 20.7655 24.9014L20.7573 21.6908H13.9743V20.7271H23.4512C23.4512 20.7271 28.0012 21.2463 28.0012 14.0363C28.0012 6.82625 24.0298 7.08292 24.0298 7.08292H21.6615V10.4278C21.6615 10.4278 21.7887 14.4178 17.7532 14.4178H11.0273C11.0273 14.4178 7.24735 14.3571 7.24735 18.0904V24.2644C7.24735 24.2644 6.67335 28.0001 14.1015 28.0001ZM17.8418 25.8418C17.1663 25.8418 16.6215 25.2934 16.6215 24.6144C16.6215 23.9366 17.1663 23.3883 17.8418 23.3883C18.5162 23.3883 19.0622 23.9366 19.0622 24.6144C19.0622 25.2934 18.5162 25.8418 17.8418 25.8418Z" fill="#CDC5F2"/>
</g>
</svg>
